# File created by Blade
# Date/Time:  Wed Sep 24 19:42:34 2014
# Frame Rate: 120.000 fps
#------------------------------------------------------
:FULLY-SPECIFIED
:DEGREES
1818
root -4.613604 33.006746 -3.299983 5.206712 8.512103 -1.098289
Spine -14.274166 18.383289 -6.642130
Head 19.009368 -26.322393 3.331494
LeftShoulder -13.284939 22.141360 7.247543
LeftArm 25.903795 29.579304 -59.792473
LeftForeArm 0.004188 0.000000 24.600182
LeftHand -24.306413 -0.000000 -8.212408
LeftHandThumb1 -26.253704 0.000000 33.147579
RightShoulder 99.707747 111.822422 42.728197
RightArm -9.268638 38.167015 52.550137
RightForeArm 60.318899 -0.000000 123.016710
RightHand 6.667341 -0.000000 18.694668
RightHandThumb1 -24.326973 -0.000000 -32.862282
LeftUpLeg -1.289923 -0.035646 5.575836
LeftLeg -0.473323 -0.000000 0.000000
LeftFoot -7.844390 3.008512 -18.843052
LeftToeBase 10.263841 -0.000000 -0.000000
RightUpLeg -1.356190 -9.881597 -0.699738
RightLeg 3.396351 -0.000000 -0.000000
RightFoot -6.708708 -9.019762 -14.976139
RightToeBase 1.443903 -0.000000 -0.000000
1819
root -4.619153 33.004511 -3.303512 5.188081 8.443894 -1.104221
Spine -14.173825 18.315701 -6.636646
Head 19.093590 -26.406649 3.378622
LeftShoulder -13.358162 22.201083 7.211595
LeftArm 25.914866 29.617360 -59.658348
LeftForeArm -0.116986 -0.000000 24.490448
LeftHand -24.545431 -0.000000 -7.933046
LeftHandThumb1 -26.253704 0.000000 33.147579
RightShoulder 99.727851 111.853095 42.729967
RightArm -9.366661 37.914635 52.545751
RightForeArm 60.106421 -0.000000 123.024328
RightHand 6.915085 -0.000000 18.450770
RightHandThumb1 -24.326973 -0.000000 -32.862282
LeftUpLeg -1.269021 -0.021474 5.587420
LeftLeg -0.463628 -0.000000 0.000000
LeftFoot -7.883923 3.039909 -18.862939
LeftToeBase 10.246183 -0.000000 -0.000000
RightUpLeg -1.355392 -9.823205 -0.694343
RightLeg 3.406822 -0.000000 -0.000000
RightFoot -6.740496 -9.021265 -14.988205
RightToeBase 1.487833 -0.000000 -0.000000
1820
root -4.625011 33.001920 -3.307025 5.166526 8.373644 -1.110123
Spine -14.075522 18.269963 -6.637711
Head 19.187991 -26.525334 3.412286
LeftShoulder -13.424351 22.261541 7.187091
LeftArm 25.949867 29.663362 -59.527474
LeftForeArm -0.218226 -0.000000 24.346162
LeftHand -24.491489 -0.000000 -8.003908
LeftHandThumb1 -26.253704 0.000000 33.147579
RightShoulder 99.885918 111.887593 42.889112
RightArm -9.396643 37.734893 52.586497
RightForeArm 59.854640 -0.000000 123.050194
RightHand 6.815184 -0.000000 18.404441
RightHandThumb1 -24.326973 -0.000000 -32.862282
LeftUpLeg -1.241854 -0.003819 5.598440
LeftLeg -0.463349 -0.000000 0.000000
LeftFoot -7.927695 3.077031 -18.878826
LeftToeBase 10.299383 -0.000000 -0.000000
RightUpLeg -1.351283 -9.780180 -0.687067
RightLeg 3.412553 -0.000000 -0.000000
RightFoot -6.762913 -9.004764 -15.008091
RightToeBase 1.462897 -0.000000 -0.000000
1821
root -4.630826 32.999187 -3.311153 5.150744 8.303843 -1.109462
Spine -13.980793 18.205744 -6.654958
Head 19.278866 -26.578075 3.492031
LeftShoulder -13.496313 22.290794 7.176281
LeftArm 25.939486 29.694020 -59.432950
LeftForeArm -0.231091 0.000000 24.205790
LeftHand -24.526608 0.000000 -7.967369
LeftHandThumb1 -26.253704 0.000000 33.147579
RightShoulder 100.149744 111.913785 43.184711
RightArm -9.355845 37.529748 52.649898
RightForeArm 59.524184 -0.000000 123.069568
RightHand 6.917611 -0.000000 18.270263
RightHandThumb1 -24.326973 -0.000000 -32.862282
LeftUpLeg -1.222803 -0.000693 5.603464
LeftLeg -0.458832 -0.000000 0.000000
LeftFoot -7.966995 3.127379 -18.905098
LeftToeBase 10.254550 -0.000000 -0.000000
RightUpLeg -1.356179 -9.754700 -0.686793
RightLeg 3.426306 -0.000000 -0.000000
RightFoot -6.803221 -8.966012 -15.046519
RightToeBase 1.462584 -0.000000 -0.000000
1822
root -4.637228 32.996470 -3.315830 5.134492 8.229796 -1.117477
Spine -13.882368 18.156876 -6.672477
Head 19.362621 -26.647168 3.570626
LeftShoulder -13.559801 22.322471 7.175334
LeftArm 25.933655 29.692047 -59.374793
LeftForeArm -0.310378 -0.000000 24.075232
LeftHand -24.582464 -0.000000 -8.021856
LeftHandThumb1 -26.253704 0.000000 33.147579
RightShoulder 100.307970 111.935312 43.352505
RightArm -9.438249 37.322796 52.606484
RightForeArm 59.284392 -0.000000 123.092515
RightHand 6.772254 -0.000000 18.298327
RightHandThumb1 -24.326973 -0.000000 -32.862282
LeftUpLeg -1.201330 -0.012694 5.618333
LeftLeg -0.456875 -0.000000 0.000000
LeftFoot -8.025601 3.191892 -18.916990
LeftToeBase 10.333267 -0.000000 -0.000000
RightUpLeg -1.368851 -9.723792 -0.679070
RightLeg 3.450406 -0.000000 -0.000000
RightFoot -6.850822 -8.929588 -15.055254
RightToeBase 1.477667 -0.000000 -0.000000
1823
root -4.641461 32.994429 -3.320925 5.116630 8.145401 -1.118543
Spine -13.774126 18.111413 -6.688958
Head 19.439986 -26.762280 3.634223
LeftShoulder -13.656189 22.545395 7.096926
LeftArm 26.121349 29.579109 -59.202408
LeftForeArm -0.282226 -0.000000 23.962025
LeftHand -24.522607 -0.000000 -8.390437
LeftHandThumb1 -26.253704 0.000000 33.147579
RightShoulder 100.405129 111.960009 43.459177
RightArm -9.509579 37.049173 52.585259
RightForeArm 59.041997 -0.000000 123.111570
RightHand 6.794524 0.000000 18.269808
RightHandThumb1 -24.326973 -0.000000 -32.862282
LeftUpLeg -1.176482 -0.016212 5.620024
LeftLeg -0.454625 -0.000000 0.000000
LeftFoot -8.069212 3.260586 -18.947282
LeftToeBase 10.311493 -0.000000 -0.000000
RightUpLeg -1.383725 -9.673146 -0.677787
RightLeg 3.481934 -0.000000 -0.000000
RightFoot -6.875632 -8.928987 -15.114228
RightToeBase 1.508837 -0.000000 -0.000000
1824
root -4.648249 32.992367 -3.325944 5.095740 8.060373 -1.124275
Spine -13.659434 18.068498 -6.693041
Head 19.512814 -26.850841 3.671897
LeftShoulder -13.695140 22.402851 7.125483
LeftArm 25.933044 29.681326 -59.225776
LeftForeArm -0.313160 0.000000 23.848125
LeftHand -24.516637 -0.000000 -8.348023
LeftHandThumb1 -26.253704 0.000000 33.147579
RightShoulder 100.695892 111.983605 43.748931
RightArm -9.536199 36.809222 52.558664
RightForeArm 58.874400 -0.000000 123.137072
RightHand 6.783227 -0.000000 18.289107
RightHandThumb1 -24.326973 -0.000000 -32.862282
LeftUpLeg -1.152656 0.017794 5.631428
LeftLeg -0.446815 -0.000000 0.000000
LeftFoot -8.104303 3.290170 -18.958108
LeftToeBase 10.325814 -0.000000 -0.000000
RightUpLeg -1.394002 -9.628083 -0.669974
RightLeg 3.502787 -0.000000 -0.000000
RightFoot -6.906558 -8.902469 -15.151753
RightToeBase 1.521284 -0.000000 -0.000000
1825
root -4.654425 32.990182 -3.332336 5.083204 7.978334 -1.127703
Spine -13.550599 18.036517 -6.735664
Head 19.536467 -26.954312 3.815269
LeftShoulder -13.706955 22.552072 7.127755
LeftArm 25.987730 29.581931 -59.181454
LeftForeArm -0.400137 -0.000000 23.778542
LeftHand -24.431901 0.000000 -8.394981
LeftHandThumb1 -26.253704 0.000000 33.147579
RightShoulder 101.092185 112.036454 44.236434
RightArm -9.434793 36.562920 52.588817
RightForeArm 58.799488 -0.000000 123.142439
RightHand 6.710004 -0.000000 18.326470
RightHandThumb1 -24.326973 -0.000000 -32.862282
LeftUpLeg -1.141231 0.011974 5.638211
LeftLeg -0.437167 -0.000000 0.000000
LeftFoot -8.147786 3.366728 -18.966301
LeftToeBase 10.287757 -0.000000 -0.000000
RightUpLeg -1.379313 -9.478580 -0.667686
RightLeg 3.458954 -0.000000 -0.000000
RightFoot -6.886739 -8.944264 -15.110193
RightToeBase 1.486404 -0.000000 -0.000000
1826
root -4.661519 32.988700 -3.338580 5.063230 7.897270 -1.135397
Spine -13.419465 17.992940 -6.754163
Head 19.579273 -27.053868 3.868590
LeftShoulder -13.787090 22.651175 7.096415
LeftArm 26.063650 29.537495 -59.097625
LeftForeArm -0.483228 0.000000 23.703140
LeftHand -24.652001 -0.000000 -8.154945
LeftHandThumb1 -26.253704 0.000000 33.147579
RightShoulder 101.307963 112.104351 44.495630
RightArm -9.396397 36.303743 52.642747
RightForeArm 58.714327 -0.000000 123.154323
RightHand 6.619652 -0.000000 18.363184
RightHandThumb1 -24.326973 -0.000000 -32.862282
LeftUpLeg -1.122394 0.035231 5.653559
LeftLeg -0.426902 -0.000000 0.000000
LeftFoot -8.187235 3.397044 -19.011440
LeftToeBase 10.369533 -0.000000 -0.000000
RightUpLeg -1.396469 -9.414700 -0.658211
RightLeg 3.493746 -0.000000 -0.000000
RightFoot -6.924915 -8.923559 -15.143885
RightToeBase 1.543256 -0.000000 -0.000000
1827
root -4.668470 32.987226 -3.346287 5.050850 7.809245 -1.141428
Spine -13.303592 17.954211 -6.776640
Head 19.613278 -27.142404 3.946566
LeftShoulder -13.846034 22.687279 7.094174
LeftArm 26.077886 29.575229 -59.029240
LeftForeArm -0.614401 -0.000000 23.639063
LeftHand -24.673634 -0.000000 -7.990957
LeftHandThumb1 -26.253704 0.000000 33.147579
RightShoulder 101.793338 112.153534 45.047624
RightArm -9.265205 36.068672 52.719867
RightForeArm 58.647165 0.000000 123.172676
RightHand 6.688703 -0.000000 18.342385
RightHandThumb1 -24.326973 -0.000000 -32.862282
LeftUpLeg -1.116005 0.074202 5.663408
LeftLeg -0.410361 -0.000000 0.000000
LeftFoot -8.213318 3.442685 -19.015556
LeftToeBase 10.303984 -0.000000 -0.000000
RightUpLeg -1.427220 -9.335134 -0.649467
RightLeg 3.532200 -0.000000 -0.000000
RightFoot -6.951829 -8.930727 -15.173930
RightToeBase 1.547834 -0.000000 -0.000000
1828
root -4.673296 32.986092 -3.353660 5.030976 7.723151 -1.140426
Spine -13.167390 17.879781 -6.787919
Head 19.646980 -27.215255 3.998620
LeftShoulder -13.907675 22.708147 7.096270
LeftArm 26.042963 29.614450 -59.011572
LeftForeArm -0.732192 -0.000000 23.595558
LeftHand -24.644904 -0.000000 -8.015360
LeftHandThumb1 -26.253704 0.000000 33.147579
RightShoulder 102.024390 112.184361 45.336038
RightArm -9.186450 35.823838 52.776839
RightForeArm 58.556880 -0.000000 123.194176
RightHand 6.728026 -0.000000 18.294191
RightHandThumb1 -24.326973 -0.000000 -32.862282
LeftUpLeg -1.099958 0.096582 5.660233
LeftLeg -0.396792 -0.000000 0.000000
LeftFoot -8.249163 3.501055 -19.011036
LeftToeBase 10.279607 -0.000000 -0.000000
RightUpLeg -1.454274 -9.280092 -0.651986
RightLeg 3.583211 -0.000000 -0.000000
RightFoot -6.979043 -8.912396 -15.178929
RightToeBase 1.476919 -0.000000 -0.000000
1829
root -4.679791 32.985134 -3.362356 5.012967 7.639005 -1.150950
Spine -13.026857 17.828366 -6.815880
Head 19.640297 -27.330381 4.144063
LeftShoulder -13.880237 22.779481 7.143546
LeftArm 25.955446 29.516281 -59.102824
LeftForeArm -0.719377 -0.000000 23.627649
LeftHand -24.662426 -0.000000 -7.982032
LeftHandThumb1 -26.253704 0.000000 33.147579
RightShoulder 102.122316 112.228050 45.497718
RightArm -9.187758 35.555941 52.787450
RightForeArm 58.384871 0.000000 123.227095
RightHand 6.701710 -0.000000 18.290116
RightHandThumb1 -24.326973 -0.000000 -32.862282
LeftUpLeg -1.097925 0.150981 5.672118
LeftLeg -0.364993 -0.000000 0.000000
LeftFoot -8.284266 3.529454 -19.015114
LeftToeBase 10.315518 -0.000000 -0.000000
RightUpLeg -1.478086 -9.200936 -0.636814
RightLeg 3.611627 -0.000000 -0.000000
RightFoot -6.983119 -8.914322 -15.199863
RightToeBase 1.512882 -0.000000 -0.000000
